<svg xmlns="http://www.w3.org/2000/svg" width="536.539" height="104.02" viewBox="0 0 536.539 104.02"><defs><style>.a{fill:#0d4269;}.b{fill:#00cde1;}</style></defs><g transform="translate(0 0)"><g transform="translate(185.972 14.595)"><path class="a" d="M1723.662-1382.053c0,6.226-3.574,9.678-9.618,9.678-2.156,0-6.042-.431-7.768-1.234l1.05-6.29h2.9c2.771,0,4.066-1.106,4.066-3.266v-31.6a.881.881,0,0,1,.879-.879h7.613a.881.881,0,0,1,.88.879Z" transform="translate(-1706.276 1430.755)"/><path class="a" d="M1723.621-1372.359l-2.9,10.511a.886.886,0,0,1-.851.648h-7.754a.882.882,0,0,1-.842-1.139l11.92-38.933a3.294,3.294,0,0,1,3.268-2.464h8.936a3.176,3.176,0,0,1,3.206,2.464l11.976,38.927a.883.883,0,0,1-.842,1.145h-7.754a.88.88,0,0,1-.846-.648l-2.9-10.511Zm7.788-24.289h-.951a.455.455,0,0,0-.444.345c-.629,2.657-4.422,16.667-4.422,16.667h10.6l-4.35-16.672A.447.447,0,0,0,1731.409-1396.648Zm-5.632-13.069,12.392-9.126,4.189,6.289-13.868,6.78Z" transform="translate(-1687.804 1418.843)"/><path class="a" d="M1752.788-1374.838c0,1.168-.553,1.726-1.665,1.726h-4.316a1.979,1.979,0,0,1-1.972-1.357l-18.544-37.278a.265.265,0,0,0-.232-.142h-.628a.259.259,0,0,0-.261.26v37.657a.859.859,0,0,1-.855.86h-2.294a.86.86,0,0,1-.856-.86v-39.949c0-1.173.553-1.726,1.665-1.726h4.189a1.972,1.972,0,0,1,1.971,1.352l18.611,37.155a.261.261,0,0,0,.232.142h.685a.257.257,0,0,0,.261-.26v-37.533a.86.86,0,0,1,.86-.856h2.289a.857.857,0,0,1,.86.856Z" transform="translate(-1650.766 1430.755)"/><path class="a" d="M1738.171-1387.17l-4.492,13.476a.854.854,0,0,1-.8.582h-2.392a.851.851,0,0,1-.8-1.125l13.854-40.243a1.646,1.646,0,0,1,1.6-1.167h4.624a1.647,1.647,0,0,1,1.6,1.167l13.854,40.243a.851.851,0,0,1-.8,1.125h-2.393a.855.855,0,0,1-.8-.582l-4.492-13.476Zm9.873-25.272h-1.135a.406.406,0,0,0-.387.278l-7.177,21.481h16.208l-7.116-21.481A.413.413,0,0,0,1748.043-1412.442Z" transform="translate(-1619.198 1430.755)"/><path class="a" d="M1768.9-1413.606l-.615,5.409a.9.9,0,0,1-.941.789c-3.551-.208-6.137-.26-11.116-.26-6.161,0-8.015,3.144-8.015,13.873s1.854,13.868,8.015,13.868a102.313,102.313,0,0,0,11.939-.445.893.893,0,0,1,.988.781l.614,5.334a.9.9,0,0,1-.643.959,42.776,42.776,0,0,1-12.9,1.509c-13.131,0-17.877-5.792-17.877-22.006s4.746-22.01,17.877-22.01a45.4,45.4,0,0,1,12,1.229A.893.893,0,0,1,1768.9-1413.606Z" transform="translate(-1586.707 1430.169)"/><path class="a" d="M1782.614-1393.747c0,17.074-4.808,22.067-18.245,22.067s-18.186-4.992-18.186-22.067,4.747-22.071,18.186-22.071S1782.614-1410.825,1782.614-1393.747Zm-26.567,0c0,11.277,1.91,14.483,8.322,14.483s8.321-3.206,8.321-14.483-1.91-14.488-8.321-14.488S1756.047-1405.029,1756.047-1393.747Z" transform="translate(-1557.492 1430.121)"/><path class="a" d="M1791.7-1376.507a3.392,3.392,0,0,1-3.39,3.4h-5.8c-1.972,0-2.832-.927-3.759-2.776l-14.02-29.282h-.089v31.193a.865.865,0,0,1-.86.865h-7.216a.866.866,0,0,1-.865-.865v-38.281a3.389,3.389,0,0,1,3.39-3.39h5.736c1.971,0,2.836.921,3.759,2.771l14.1,28.853h.133v-30.762a.862.862,0,0,1,.865-.861h7.153a.861.861,0,0,1,.861.861Z" transform="translate(-1522.006 1430.755)"/><path class="a" d="M1786.916-1408.007v34.03a.862.862,0,0,1-.861.865h-7.707a.865.865,0,0,1-.865-.865v-34.03h-11.835a.858.858,0,0,1-.861-.861v-5.919a.858.858,0,0,1,.861-.861h33.106a.861.861,0,0,1,.861.861v5.919a.861.861,0,0,1-.861.861Z" transform="translate(-1488.132 1430.755)"/><path class="a" d="M1784.67-1384.271l-3.082,11.159h-9.618l12.27-40.072a3.244,3.244,0,0,1,3.267-2.464h8.875a3.2,3.2,0,0,1,3.267,2.464l12.27,40.072h-9.556l-3.083-11.159Zm9-20.284c-.307-1.291-.676-2.71-.861-4.006h-1.664l-.927,4.006-3.574,13.007h10.605Z" transform="translate(-1461.352 1430.755)"/></g><path class="b" d="M1807.69-1412.138a4.263,4.263,0,0,0-3.343-1.235l-50.1,3.853a4.594,4.594,0,0,0-3.49,1.868,4.271,4.271,0,0,0,.511,5.419l8.615,8.615-35.75,35.75a28.6,28.6,0,0,1-25.168,7.938,28.611,28.611,0,0,1,7.943-25.168l14.677-14.677a9.8,9.8,0,0,0,0-13.854l-15.438-15.433a9.791,9.791,0,0,0-13.849,0l-14.057,14.053c-14.228,14.227-15.291,37.386-1.613,52.143a36.937,36.937,0,0,0,15.344,9.935,36.9,36.9,0,0,0,9.933,15.338c14.752,13.68,37.916,12.615,52.138-1.611l35.126-35.127,8.407,8.407a4.581,4.581,0,0,0,3.693,1.433,4.27,4.27,0,0,0,3.782-3.911l3.877-50.394A4.266,4.266,0,0,0,1807.69-1412.138Zm-126.864,50.99c-8.487-11.509-6.733-27.651,3.381-37.765l13.39-13.391a2.3,2.3,0,0,1,3.248,0l13.982,13.981a2.3,2.3,0,0,1,0,3.244l-13.954,13.953a37.065,37.065,0,0,0-10.817,28.072A28.553,28.553,0,0,1,1680.826-1361.148Zm115.534-8.052-4.175-4.176a4.264,4.264,0,0,0-6.028,0l-38.209,38.21c-10.114,10.113-26.251,11.868-37.76,3.38a28.6,28.6,0,0,1-8.094-9.229,37.1,37.1,0,0,0,28.072-10.823l18.586-18.587,20.176-20.176a4.269,4.269,0,0,0,0-6.033l-4.175-4.176a.582.582,0,0,1,.369-.993l34.062-2.619a.74.74,0,0,1,.795.794l-2.62,34.058A.585.585,0,0,1,1796.36-1369.2Z" transform="translate(-1666.944 1421.93)"/></g></svg>