<svg xmlns="http://www.w3.org/2000/svg" width="30" height="30" viewBox="0 0 30 30"><defs><style>.a{fill:#00cde1;}.b{fill:#f4f4f4;}</style></defs><g transform="translate(-119.011 -400.149)"><circle class="a" cx="15" cy="15" r="15" transform="translate(119.011 400.149)"/><circle class="b" cx="2.381" cy="2.381" r="2.381" transform="translate(131.63 412.768)"/><path class="b" d="M141.108,412.2a3.955,3.955,0,0,0-4.148-4.149c-.987-.056-1.963-.046-2.949-.046s-1.963-.01-2.949.046a3.955,3.955,0,0,0-4.148,4.149c-.056.985-.047,1.962-.047,2.948s-.009,1.963.047,2.948a3.954,3.954,0,0,0,4.148,4.149c.986.056,1.963.047,2.949.047s1.962.009,2.949-.047a3.954,3.954,0,0,0,4.148-4.149c.055-.985.046-1.962.046-2.948S141.163,413.186,141.108,412.2Zm-7.1,6.613a3.665,3.665,0,1,1,3.664-3.665A3.66,3.66,0,0,1,134.011,418.814Zm3.813-6.623a.855.855,0,1,1,.856-.856A.853.853,0,0,1,137.824,412.191Z"/></g></svg>