<svg xmlns="http://www.w3.org/2000/svg" width="30" height="30" viewBox="0 0 30 30"><defs><style>.a{fill:#00cde1;}.b{fill:#f4f4f4;}</style></defs><g transform="translate(-173.641 -400.149)"><circle class="a" cx="15" cy="15" r="15" transform="translate(173.641 400.149)"/><path class="b" d="M183.243,411.526h-.018a1.735,1.735,0,1,1,.018,0Zm1.525,10.407h-3.05v-9.16h3.05Zm10.972,0H192.7v-4.9c0-1.229-.444-2.07-1.544-2.07a1.668,1.668,0,0,0-1.562,1.109,2.3,2.3,0,0,0-.1.749v5.111h-3.041c.036-8.3,0-9.16,0-9.16h3.041v1.332h-.019a3.017,3.017,0,0,1,2.764-1.544c2.005,0,3.5,1.313,3.5,4.122Z"/></g></svg>