<svg id="Group_93" data-name="Group 93" xmlns="http://www.w3.org/2000/svg" width="115" height="28.001" viewBox="0 0 115 28.001">
  <rect id="Rectangle_45" data-name="Rectangle 45" width="115" height="28" fill="none"/>
  <g id="Group_92" data-name="Group 92" transform="translate(0 6)">
    <g id="Group_23" data-name="Group 23">
      <g id="Group_22" data-name="Group 22">
        <g id="Group_19" data-name="Group 19" transform="translate(39.332 3.088)">
          <path id="Path_16" data-name="Path 16" d="M312.929,432.975a1.856,1.856,0,0,1-2.033,2.047,5.117,5.117,0,0,1-1.643-.261l.222-1.33h.612c.587,0,.861-.235.861-.691v-6.684a.187.187,0,0,1,.186-.187h1.609a.186.186,0,0,1,.186.187Z" transform="translate(-309.253 -422.675)" fill="#0d4269"/>
          <path id="Path_17" data-name="Path 17" d="M316.827,432.505l-.614,2.224a.185.185,0,0,1-.179.136h-1.64a.187.187,0,0,1-.179-.241l2.521-8.233a.7.7,0,0,1,.691-.522h1.891a.673.673,0,0,1,.678.522l2.533,8.233a.186.186,0,0,1-.178.241h-1.64a.187.187,0,0,1-.18-.136l-.614-2.224Zm1.647-5.136h-.2a.1.1,0,0,0-.093.073c-.133.561-.935,3.525-.935,3.525h2.242l-.92-3.527A.1.1,0,0,0,318.474,427.369Zm-1.19-2.764,2.62-1.93.887,1.33-2.934,1.434Z" transform="translate(-309.253 -422.675)" fill="#0d4269"/>
          <path id="Path_18" data-name="Path 18" d="M330.829,434.5c0,.248-.117.365-.352.365h-.912a.417.417,0,0,1-.417-.287l-3.923-7.883a.053.053,0,0,0-.049-.03h-.132a.054.054,0,0,0-.055.055v7.964a.182.182,0,0,1-.182.181h-.484a.181.181,0,0,1-.182-.181v-8.45c0-.247.118-.365.352-.365h.887a.419.419,0,0,1,.417.287l3.935,7.857a.056.056,0,0,0,.05.031h.145a.055.055,0,0,0,.055-.055v-7.938a.182.182,0,0,1,.182-.182h.484a.182.182,0,0,1,.181.182Z" transform="translate(-309.253 -422.675)" fill="#0d4269"/>
          <path id="Path_19" data-name="Path 19" d="M334.414,431.893l-.949,2.85a.181.181,0,0,1-.171.122h-.505a.179.179,0,0,1-.17-.238l2.93-8.51a.348.348,0,0,1,.339-.248h.978a.348.348,0,0,1,.338.248l2.93,8.51a.179.179,0,0,1-.169.238h-.506a.179.179,0,0,1-.17-.122l-.95-2.85Zm2.089-5.346h-.24a.087.087,0,0,0-.082.059l-1.519,4.543h3.429l-1.506-4.542A.086.086,0,0,0,336.5,426.547Z" transform="translate(-309.253 -422.675)" fill="#0d4269"/>
          <path id="Path_20" data-name="Path 20" d="M347.785,426.177l-.131,1.144a.188.188,0,0,1-.2.167c-.751-.043-1.3-.054-2.351-.054-1.3,0-1.7.665-1.7,2.933s.391,2.934,1.7,2.934a21.411,21.411,0,0,0,2.525-.1.189.189,0,0,1,.208.166l.13,1.128a.189.189,0,0,1-.135.2,9.053,9.053,0,0,1-2.728.319c-2.777,0-3.781-1.226-3.781-4.655s1-4.654,3.781-4.654a9.6,9.6,0,0,1,2.536.259A.19.19,0,0,1,347.785,426.177Z" transform="translate(-309.253 -422.675)" fill="#0d4269"/>
          <path id="Path_21" data-name="Path 21" d="M356.865,430.367c0,3.612-1.017,4.668-3.859,4.668s-3.847-1.056-3.847-4.668,1-4.667,3.847-4.667S356.865,426.756,356.865,430.367Zm-5.62,0c0,2.386.4,3.064,1.761,3.064s1.76-.678,1.76-3.064-.4-3.064-1.76-3.064S351.245,427.981,351.245,430.367Z" transform="translate(-309.253 -422.675)" fill="#0d4269"/>
          <path id="Path_22" data-name="Path 22" d="M366.29,434.148a.717.717,0,0,1-.717.717h-1.225c-.417,0-.6-.195-.795-.586l-2.965-6.193h-.02v6.6a.181.181,0,0,1-.182.182H358.86a.182.182,0,0,1-.182-.182v-8.1a.717.717,0,0,1,.717-.717h1.213c.417,0,.6.2.8.587l2.982,6.1h.028v-6.506a.183.183,0,0,1,.182-.183h1.513a.182.182,0,0,1,.182.183Z" transform="translate(-309.253 -422.675)" fill="#0d4269"/>
          <path id="Path_23" data-name="Path 23" d="M372.444,427.486v7.2a.182.182,0,0,1-.183.182h-1.63a.182.182,0,0,1-.182-.182v-7.2h-2.5a.183.183,0,0,1-.183-.182v-1.252a.183.183,0,0,1,.183-.183h7a.182.182,0,0,1,.182.183V427.3a.182.182,0,0,1-.182.182Z" transform="translate(-309.253 -422.675)" fill="#0d4269"/>
          <path id="Path_24" data-name="Path 24" d="M377.633,432.505l-.652,2.36h-2.034l2.594-8.474a.687.687,0,0,1,.691-.522h1.878a.678.678,0,0,1,.691.522l2.594,8.474h-2.021l-.652-2.36Zm1.9-4.289c-.065-.274-.143-.574-.183-.847H379l-.2.847-.756,2.751h2.242Z" transform="translate(-309.253 -422.675)" fill="#0d4269"/>
        </g>
        <g id="Group_21" data-name="Group 21">
          <g id="Group_20" data-name="Group 20">
            <path id="Path_25" data-name="Path 25" d="M299.688,421.659a.9.9,0,0,0-.707-.262l-10.6.815a.97.97,0,0,0-.738.4.9.9,0,0,0,.108,1.146l1.822,1.822-7.561,7.56a6.051,6.051,0,0,1-5.323,1.68,6.053,6.053,0,0,1,1.679-5.323l3.1-3.105a2.073,2.073,0,0,0,0-2.929l-3.265-3.265a2.072,2.072,0,0,0-2.93,0l-2.972,2.973a7.98,7.98,0,0,0-.341,11.027,7.809,7.809,0,0,0,3.244,2.1,7.822,7.822,0,0,0,2.1,3.245,7.981,7.981,0,0,0,11.028-.341l7.429-7.429,1.778,1.778a.967.967,0,0,0,.78.3.9.9,0,0,0,.8-.828l.82-10.657A.9.9,0,0,0,299.688,421.659Zm-26.831,10.783a6.172,6.172,0,0,1,.714-7.986l2.833-2.833a.486.486,0,0,1,.686,0l2.958,2.958a.486.486,0,0,1,0,.686l-2.951,2.95a7.845,7.845,0,0,0-2.289,5.937A6.024,6.024,0,0,1,272.857,432.442Zm24.435-1.7-.883-.883a.9.9,0,0,0-1.276,0l-8.08,8.081a6.172,6.172,0,0,1-7.986.714,6.043,6.043,0,0,1-1.713-1.952,7.838,7.838,0,0,0,5.937-2.288l3.932-3.932,4.267-4.267a.9.9,0,0,0,0-1.275l-.883-.883a.124.124,0,0,1,.078-.211l7.2-.554a.156.156,0,0,1,.168.168l-.554,7.2A.123.123,0,0,1,297.292,430.74Z" transform="translate(-269.921 -419.587)" fill="#00cde1"/>
          </g>
        </g>
      </g>
    </g>
  </g>
</svg>
